<svg width="354" height="276" viewBox="0 0 354 276" fill="none" xmlns="http://www.w3.org/2000/svg">
<g clip-path="url(#clip0_0_1)">
<path d="M140 165.667C140 167.14 141.194 168.334 142.667 168.334C144.14 168.334 145.334 167.14 145.334 165.667C145.334 164.194 144.14 163 142.667 163C141.194 163 140 164.194 140 165.667ZM66 165.667C66 167.14 67.1939 168.334 68.6667 168.334C70.1395 168.334 71.3334 167.14 71.3334 165.667C71.3334 164.194 70.1395 163 68.6667 163C67.1939 163 66 164.194 66 165.667ZM142.667 165.167H68.6667V166.167H142.667V165.167Z" fill="black"/>
<path d="M209.001 136.225C209.033 137.698 210.253 138.865 211.725 138.833C213.198 138.801 214.365 137.581 214.333 136.109C214.301 134.636 213.081 133.469 211.609 133.501C210.136 133.533 208.969 134.753 209.001 136.225ZM277.501 134.725C277.533 136.198 278.753 137.365 280.225 137.333C281.698 137.301 282.865 136.081 282.833 134.609C282.801 133.136 281.581 131.969 280.109 132.001C278.636 132.033 277.469 133.253 277.501 134.725ZM211.678 136.667L280.178 135.167L280.156 134.167L211.656 135.667L211.678 136.667Z" fill="black"/>
<path d="M216.333 85C216.333 86.4728 217.527 87.6667 219 87.6667C220.473 87.6667 221.667 86.4728 221.667 85C221.667 83.5272 220.473 82.3333 219 82.3333C217.527 82.3333 216.333 83.5272 216.333 85ZM290.833 85C290.833 86.4728 292.027 87.6667 293.5 87.6667C294.973 87.6667 296.167 86.4728 296.167 85C296.167 83.5272 294.973 82.3333 293.5 82.3333C292.027 82.3333 290.833 83.5272 290.833 85ZM219 85.5H293.5V84.5H219V85.5Z" fill="black"/>
<path d="M150 109.667C150 111.14 151.194 112.333 152.667 112.333C154.14 112.333 155.334 111.14 155.334 109.667C155.334 108.194 154.14 107 152.667 107C151.194 107 150 108.194 150 109.667ZM93 109.667C93 111.14 94.1939 112.333 95.6667 112.333C97.1395 112.333 98.3334 111.14 98.3334 109.667C98.3334 108.194 97.1395 107 95.6667 107C94.1939 107 93 108.194 93 109.667ZM152.667 109.167H95.6667V110.167H152.667V109.167Z" fill="black"/>
<path d="M125 66.6667C125 68.1395 126.194 69.3334 127.667 69.3334C129.14 69.3334 130.334 68.1395 130.334 66.6667C130.334 65.1939 129.14 64 127.667 64C126.194 64 125 65.1939 125 66.6667ZM47 66.6667C47 68.1395 48.1939 69.3334 49.6667 69.3334C51.1395 69.3334 52.3334 68.1395 52.3334 66.6667C52.3334 65.1939 51.1395 64 49.6667 64C48.1939 64 47 65.1939 47 66.6667ZM127.667 66.1667H49.6667V67.1667H127.667V66.1667Z" fill="black"/>
<path d="M222.333 47.5196C222.344 48.9923 223.547 50.1774 225.02 50.1666C226.492 50.1558 227.677 48.9531 227.667 47.4804C227.656 46.0077 226.453 44.8226 224.98 44.8334C223.508 44.8442 222.323 46.0469 222.333 47.5196ZM290.333 47.0196C290.344 48.4923 291.547 49.6774 293.02 49.6666C294.492 49.6558 295.677 48.4531 295.667 46.9804C295.656 45.5077 294.453 44.3226 292.98 44.3334C291.508 44.3442 290.323 45.5469 290.333 47.0196ZM225.004 48L293.004 47.5L292.996 46.5L224.996 47L225.004 48Z" fill="black"/>
<path d="M188.833 17C188.833 18.4728 190.027 19.6667 191.5 19.6667C192.973 19.6667 194.167 18.4728 194.167 17C194.167 15.5272 192.973 14.3333 191.5 14.3333C190.027 14.3333 188.833 15.5272 188.833 17ZM75.8333 23.5C75.8333 24.9728 77.0272 26.1667 78.5 26.1667C79.9728 26.1667 81.1667 24.9728 81.1667 23.5C81.1667 22.0272 79.9728 20.8333 78.5 20.8333C77.0272 20.8333 75.8333 22.0272 75.8333 23.5ZM172.5 23.5V24H172.583L172.662 23.9731L172.5 23.5ZM191.338 16.5269L172.338 23.0269L172.662 23.9731L191.662 17.4731L191.338 16.5269ZM172.5 23H78.5V24H172.5V23Z" fill="black"/>
<path d="M219.791 201.248C219.841 210.598 143.581 210.098 143.051 201.608C140.501 191.808 221.541 192.318 219.791 201.248Z" fill="#F58F74" stroke="#002346" stroke-miterlimit="10"/>
<path d="M208.891 34.5981C192.301 71.0881 168.041 60.2881 184.031 23.5381C200.611 -12.9519 224.881 -2.1519 208.891 34.5981Z" fill="#7CD093" stroke="#002346" stroke-miterlimit="10"/>
<path d="M195.571 191.798C182.451 189.338 187.361 174.158 199.411 166.308C199.411 166.308 211.581 157.618 220.801 160.198C229.651 164.438 226.301 173.148 217.971 180.718C217.971 180.718 206.951 192.048 195.571 191.798Z" fill="#7CD093" stroke="#002346" stroke-miterlimit="10"/>
<path d="M165.301 160.448C171.611 173.068 157.891 179.018 142.911 172.808C142.911 172.808 128.601 168.298 124.581 158.358C122.421 152.388 126.531 148.118 132.741 147.228C145.181 144.588 158.031 150.038 165.301 160.448Z" fill="#7CD093" stroke="#002346" stroke-miterlimit="10"/>
<path d="M189.701 153.888C188.691 139.538 211.351 123.218 226.871 125.708C238.611 129.448 233.491 141.768 222.391 147.338C219.031 147.398 192.871 170.558 189.691 153.888H189.701Z" fill="#7CD093" stroke="#002346" stroke-miterlimit="10"/>
<path d="M148.941 100.608C141.221 107.908 153.301 128.638 162.241 139.658C166.151 144.488 176.151 147.488 179.591 138.898C181.211 134.858 181.251 126.608 175.361 114.958C171.301 106.668 157.921 93.3481 148.941 100.608Z" fill="#7CD093" stroke="#002346" stroke-miterlimit="10"/>
<path d="M155.061 93.4581C153.381 92.5781 151.511 91.2681 149.451 89.4281C149.451 89.4281 142.881 84.3881 135.171 81.7481C132.521 80.8481 129.991 79.5981 127.771 77.9081C112.051 65.4781 138.531 50.9681 158.581 70.9281C165.531 77.8481 172.681 93.1981 161.721 94.6781C159.441 94.9881 157.111 94.5181 155.071 93.4481L155.061 93.4581Z" fill="#7CD093" stroke="#002346" stroke-miterlimit="10"/>
<path d="M154.681 41.8781C153.451 45.7381 153.701 51.3881 158.341 59.3081C157.841 57.1481 171.821 91.0181 180.431 82.3081C184.121 78.7081 187.251 50.5181 178.331 41.7181C173.341 33.2581 158.231 30.7281 154.691 41.8681L154.681 41.8781Z" fill="#7CD093" stroke="#002346" stroke-miterlimit="10"/>
<path d="M182.333 202C182.333 203.473 183.527 204.667 185 204.667C186.473 204.667 187.667 203.473 187.667 202C187.667 200.527 186.473 199.333 185 199.333C183.527 199.333 182.333 200.527 182.333 202ZM290.333 202C290.333 203.473 291.527 204.667 293 204.667C294.473 204.667 295.667 203.473 295.667 202C295.667 200.527 294.473 199.333 293 199.333C291.527 199.333 290.333 200.527 290.333 202ZM185 202.5H260.982V201.5H185V202.5ZM260.982 202.5H293V201.5H260.982V202.5Z" fill="black"/>
<path d="M222.891 38.4681C212.821 41.7781 197.111 54.3281 190.151 74.4981C192.911 69.4981 204.091 61.9881 213.401 57.6581C219.021 54.9381 235.651 43.5481 228.111 38.9881C226.551 38.0481 224.621 37.9081 222.891 38.4781V38.4681Z" fill="#7CD093" stroke="#002346" stroke-miterlimit="10"/>
<path d="M188.171 105.858C187.511 100.888 187.821 92.3981 194.271 82.6081C197.921 77.0781 202.801 72.4781 208.421 68.9681C214.901 64.9181 223.941 61.0381 228.061 67.4481C235.141 78.4581 202.001 120.758 190.161 109.858C189.031 108.818 188.371 107.368 188.161 105.848L188.171 105.858Z" fill="#7CD093" stroke="#002346" stroke-miterlimit="10"/>
<path d="M209.131 2.20811C179.801 -2.15189 182.651 175.438 181.391 208.328" stroke="#002346" stroke-linecap="round" stroke-linejoin="round"/>
<path d="M224.731 163.088C224.731 163.088 183.411 173.728 183.311 208.328" stroke="#002346" stroke-linecap="round" stroke-linejoin="round"/>
<path d="M124.391 152.998C133.301 151.128 186.581 165.018 179.481 208.328" stroke="#002346" stroke-linecap="round" stroke-linejoin="round"/>
<path d="M182.241 175.758C182.241 175.758 192.931 133.018 232.111 128.888" stroke="#002346" stroke-linecap="round" stroke-linejoin="round"/>
<path d="M154.071 107.088C154.071 107.088 174.221 115.058 182.151 163.488" stroke="#002346" stroke-linecap="round" stroke-linejoin="round"/>
<path d="M223.781 70.8181C223.781 70.8181 187.921 92.3181 183.371 132.058" stroke="#002346" stroke-linecap="round" stroke-linejoin="round"/>
<path d="M128.641 68.6281C128.641 68.6281 176.761 82.9681 183.161 123.498" stroke="#002346" stroke-linecap="round" stroke-linejoin="round"/>
<path d="M158.341 37.6081C158.341 37.6081 176.271 60.3881 184.151 106.488" stroke="#002346" stroke-linecap="round" stroke-linejoin="round"/>
<path d="M225.731 40.6681C225.731 40.6681 197.341 57.2581 186.161 82.4881" stroke="#002346" stroke-linecap="round" stroke-linejoin="round"/>
<path d="M219.731 201.648L208.221 275.028H154.181L143.061 201.638C143.631 210.238 219.131 210.228 219.731 201.638V201.648Z" fill="#F58F74" stroke="#002346" stroke-miterlimit="10"/>
<path d="M305.544 43.29C305.871 43.8407 306.197 44.3307 306.524 44.76C306.86 45.18 307.299 45.698 307.84 46.314C307.905 46.3793 307.938 46.454 307.938 46.538C307.938 46.6687 307.863 46.7807 307.714 46.874C307.574 46.9673 307.401 47.014 307.196 47.014C306.907 47.014 306.594 46.8927 306.258 46.65C305.959 46.4353 305.693 46.1507 305.46 45.796C305.227 45.4413 304.956 44.9793 304.648 44.41C304.405 43.9713 304.261 43.7147 304.214 43.64C303.85 43.7893 303.281 43.8827 302.506 43.92C302.506 44.2373 302.534 44.6667 302.59 45.208C302.646 45.768 302.674 46.174 302.674 46.426C302.674 46.594 302.59 46.734 302.422 46.846C302.263 46.958 302.081 47.014 301.876 47.014C301.633 47.014 301.447 46.916 301.316 46.72C301.185 46.4587 301.101 46.146 301.064 45.782C301.027 45.418 301.008 44.984 301.008 44.48C301.008 43.948 301.041 43.346 301.106 42.674C301.162 41.9273 301.19 41.3767 301.19 41.022C301.19 40.7327 301.162 40.3453 301.106 39.86C301.097 39.776 301.083 39.6313 301.064 39.426C301.045 39.2207 301.036 39.034 301.036 38.866C301.036 38.7353 301.083 38.6233 301.176 38.53C301.279 38.4273 301.386 38.3573 301.498 38.32C302.254 38.1987 302.991 38.138 303.71 38.138C304.933 38.138 305.945 38.3667 306.748 38.824C307.551 39.2813 307.952 39.9767 307.952 40.91C307.952 41.1993 307.887 41.4793 307.756 41.75C307.635 42.0113 307.467 42.2307 307.252 42.408C306.683 42.8467 306.113 43.1407 305.544 43.29ZM306.482 40.868C306.482 40.42 306.244 40.056 305.768 39.776C305.292 39.4867 304.615 39.342 303.738 39.342C303.346 39.342 302.959 39.3887 302.576 39.482L302.59 40.196C302.59 40.6067 302.576 41.008 302.548 41.4C302.52 41.792 302.506 42.212 302.506 42.66C302.665 42.6227 302.833 42.5993 303.01 42.59C303.187 42.5713 303.304 42.5573 303.36 42.548C303.771 42.5107 304.088 42.464 304.312 42.408C304.732 42.2773 305.077 42.1607 305.348 42.058C305.628 41.946 305.885 41.792 306.118 41.596C306.361 41.3907 306.482 41.148 306.482 40.868ZM308.997 44.032C308.997 43.6773 309.063 43.3227 309.193 42.968C309.324 42.604 309.497 42.2727 309.711 41.974C309.926 41.6753 310.267 41.4327 310.733 41.246C311.2 41.05 311.615 40.952 311.979 40.952C312.353 40.952 312.731 41.0033 313.113 41.106C313.505 41.2087 313.776 41.3673 313.925 41.582C314.271 42.0673 314.443 42.5433 314.443 43.01C314.443 43.262 314.387 43.4767 314.275 43.654C314.173 43.8313 314.023 44.0227 313.827 44.228C313.669 44.396 313.417 44.508 313.071 44.564C312.735 44.62 312.399 44.648 312.063 44.648C311.849 44.648 311.587 44.6293 311.279 44.592C310.971 44.5453 310.673 44.4893 310.383 44.424C310.402 44.6107 310.449 44.7927 310.523 44.97C310.598 45.1473 310.687 45.2827 310.789 45.376C310.976 45.5533 311.167 45.6653 311.363 45.712C311.569 45.7587 311.83 45.782 312.147 45.782C312.483 45.782 312.796 45.726 313.085 45.614C313.319 45.53 313.51 45.488 313.659 45.488C313.837 45.488 313.972 45.544 314.065 45.656C314.159 45.7587 314.205 45.894 314.205 46.062C314.205 46.2953 314.07 46.4867 313.799 46.636C313.529 46.7853 313.216 46.8973 312.861 46.972C312.516 47.0373 312.236 47.07 312.021 47.07C311.583 47.07 311.158 46.9907 310.747 46.832C310.337 46.6733 309.996 46.4493 309.725 46.16C309.501 45.8987 309.324 45.586 309.193 45.222C309.063 44.8487 308.997 44.452 308.997 44.032ZM312.049 42.142C311.844 42.142 311.639 42.184 311.433 42.268C311.228 42.3427 311.06 42.45 310.929 42.59C310.761 42.7673 310.645 42.912 310.579 43.024C310.523 43.1267 310.486 43.2713 310.467 43.458C310.701 43.5327 311.186 43.57 311.923 43.57C312.325 43.57 312.633 43.5093 312.847 43.388C313.071 43.2667 313.183 43.108 313.183 42.912C313.183 42.716 313.062 42.5387 312.819 42.38C312.577 42.2213 312.32 42.142 312.049 42.142ZM321.101 47.056C320.784 47.056 320.541 47.0093 320.373 46.916C320.205 46.8133 320.023 46.6267 319.827 46.356C319.584 46.5707 319.22 46.7433 318.735 46.874C318.259 47.0047 317.848 47.07 317.503 47.07C316.934 47.07 316.472 46.916 316.117 46.608C315.772 46.2907 315.599 45.8287 315.599 45.222C315.599 44.9607 315.669 44.7227 315.809 44.508C315.958 44.284 316.15 44.088 316.383 43.92C316.644 43.7427 316.952 43.6027 317.307 43.5C317.671 43.3973 318.002 43.346 318.301 43.346C318.805 43.346 319.253 43.3927 319.645 43.486V43.472C319.645 42.968 319.519 42.6227 319.267 42.436C319.024 42.24 318.632 42.142 318.091 42.142C317.746 42.142 317.447 42.296 317.195 42.604C317.102 42.7253 316.906 42.786 316.607 42.786C316.458 42.786 316.346 42.7253 316.271 42.604C316.206 42.4733 316.173 42.3427 316.173 42.212C316.173 41.9413 316.285 41.708 316.509 41.512C316.742 41.316 317.022 41.1713 317.349 41.078C317.676 40.9753 317.979 40.924 318.259 40.924C318.53 40.924 318.852 40.98 319.225 41.092C319.598 41.204 319.902 41.3533 320.135 41.54C320.415 41.7827 320.63 42.0673 320.779 42.394C320.938 42.7113 321.017 43.0613 321.017 43.444C321.017 43.5653 321.008 43.7473 320.989 43.99C320.97 44.27 320.961 44.4987 320.961 44.676C320.961 44.76 320.952 44.8673 320.933 44.998C320.914 45.166 320.905 45.306 320.905 45.418C320.905 45.5393 320.942 45.656 321.017 45.768C321.092 45.88 321.194 45.9733 321.325 46.048C321.446 46.1133 321.526 46.1833 321.563 46.258C321.6 46.3327 321.619 46.4167 321.619 46.51C321.619 46.6033 321.558 46.72 321.437 46.86C321.325 46.9907 321.213 47.056 321.101 47.056ZM318.301 44.382C317.937 44.382 317.615 44.452 317.335 44.592C317.055 44.732 316.915 44.9793 316.915 45.334C316.915 45.5113 316.976 45.6607 317.097 45.782C317.228 45.9033 317.368 45.964 317.517 45.964C317.918 45.964 318.254 45.922 318.525 45.838C318.796 45.754 319.122 45.6 319.505 45.376C319.552 45.2267 319.58 45.0167 319.589 44.746C319.589 44.6433 319.594 44.564 319.603 44.508C319.099 44.424 318.665 44.382 318.301 44.382ZM327.642 42.324C327.642 42.7347 327.432 42.94 327.012 42.94C326.872 42.94 326.755 42.9073 326.662 42.842C326.568 42.7767 326.466 42.6787 326.354 42.548C326.074 42.24 325.831 42.086 325.626 42.086C325.355 42.086 325.089 42.1653 324.828 42.324C324.576 42.4827 324.37 42.7067 324.212 42.996C324.053 43.2853 323.974 43.6073 323.974 43.962C323.974 44.354 324.048 44.6807 324.198 44.942C324.356 45.2033 324.599 45.4273 324.926 45.614C325.047 45.6793 325.187 45.7307 325.346 45.768C325.514 45.8053 325.658 45.824 325.78 45.824C326.05 45.824 326.391 45.7167 326.802 45.502C326.951 45.4273 327.077 45.3713 327.18 45.334C327.282 45.2967 327.39 45.278 327.502 45.278C327.604 45.278 327.721 45.3247 327.852 45.418C327.982 45.5113 328.048 45.628 328.048 45.768C328.048 46.048 327.917 46.286 327.656 46.482C327.394 46.6687 327.072 46.8133 326.69 46.916C326.316 47.0093 325.957 47.056 325.612 47.056C325.061 47.056 324.548 46.93 324.072 46.678C323.605 46.426 323.232 46.0807 322.952 45.642C322.672 45.194 322.532 44.69 322.532 44.13C322.532 43.5327 322.667 42.9867 322.938 42.492C323.208 41.9973 323.572 41.61 324.03 41.33C324.487 41.05 324.986 40.91 325.528 40.91C325.836 40.91 326.153 40.966 326.48 41.078C326.806 41.19 327.082 41.3533 327.306 41.568C327.53 41.7827 327.642 42.0347 327.642 42.324ZM329.234 42.128C329.104 42.1093 328.996 42.058 328.912 41.974C328.838 41.8807 328.8 41.7687 328.8 41.638C328.8 41.47 328.866 41.33 328.996 41.218C329.024 41.19 329.071 41.1667 329.136 41.148C329.202 41.12 329.253 41.0967 329.29 41.078C329.496 41.0127 329.626 40.9613 329.682 40.924C329.897 40.7933 330.042 40.5787 330.116 40.28C330.191 39.9253 330.238 39.6827 330.256 39.552C330.275 39.3467 330.34 39.1927 330.452 39.09C330.574 38.978 330.723 38.922 330.9 38.922C331.134 38.922 331.297 38.9827 331.39 39.104C331.484 39.2253 331.53 39.4493 331.53 39.776C331.53 40.2053 331.428 40.6113 331.222 40.994C331.353 40.994 331.568 40.9847 331.866 40.966C332.314 40.9473 332.627 40.938 332.804 40.938C332.963 40.938 333.098 40.98 333.21 41.064C333.332 41.1387 333.392 41.2507 333.392 41.4C333.392 41.7547 333.229 41.9647 332.902 42.03C332.604 42.114 332.062 42.1653 331.278 42.184C331.213 43.0987 331.18 43.822 331.18 44.354C331.18 44.6807 331.194 44.914 331.222 45.054C331.278 45.3433 331.372 45.558 331.502 45.698C331.642 45.8287 331.848 45.894 332.118 45.894C332.249 45.894 332.445 45.8613 332.706 45.796C332.865 45.7493 332.991 45.726 333.084 45.726C333.206 45.726 333.299 45.768 333.364 45.852C333.43 45.936 333.462 46.048 333.462 46.188C333.462 46.44 333.299 46.65 332.972 46.818C332.646 46.9767 332.258 47.056 331.81 47.056C331.53 47.056 331.255 46.9907 330.984 46.86C330.714 46.72 330.485 46.552 330.298 46.356C330.261 46.3373 330.205 46.2347 330.13 46.048C330.065 45.8613 330 45.656 329.934 45.432C329.906 45.32 329.892 45.0493 329.892 44.62C329.892 44.2093 329.92 43.5 329.976 42.492L329.99 42.184C329.925 42.184 329.804 42.1793 329.626 42.17C329.449 42.1513 329.318 42.1373 329.234 42.128ZM338.231 38.012C338.558 38.04 338.833 38.1193 339.057 38.25C339.281 38.3807 339.393 38.5907 339.393 38.88C339.393 39.0947 339.3 39.2673 339.113 39.398C338.936 39.5193 338.712 39.58 338.441 39.58C338.161 39.58 337.965 39.5147 337.853 39.384C337.75 39.2533 337.699 39.118 337.699 38.978C337.699 38.7073 337.732 38.4787 337.797 38.292C337.862 38.096 338.007 38.0027 338.231 38.012ZM338.693 40.924C338.917 40.924 339.09 40.9893 339.211 41.12C339.332 41.2413 339.393 41.372 339.393 41.512L339.379 43.766C339.379 44.2607 339.384 44.634 339.393 44.886C339.43 46.0433 339.449 46.986 339.449 47.714C339.449 48.0967 339.365 48.4513 339.197 48.778C339.029 49.114 338.791 49.3753 338.483 49.562C338.175 49.758 337.83 49.856 337.447 49.856C337.26 49.856 337.083 49.7907 336.915 49.66C336.747 49.5387 336.663 49.3893 336.663 49.212C336.663 49.1187 336.7 49.0393 336.775 48.974C336.84 48.9087 336.91 48.8667 336.985 48.848C337.293 48.7827 337.512 48.722 337.643 48.666C337.783 48.61 337.895 48.4933 337.979 48.316C338.072 48.1387 338.119 47.868 338.119 47.504C338.119 45.4413 338.068 43.85 337.965 42.73C337.909 42.17 337.881 41.7453 337.881 41.456C337.881 41.3253 337.946 41.204 338.077 41.092C338.217 40.98 338.422 40.924 338.693 40.924ZM344.994 43.85C345.069 43.8967 345.213 43.9853 345.428 44.116C345.652 44.2373 345.801 44.382 345.876 44.55C345.951 44.718 345.988 44.9513 345.988 45.25C345.988 45.586 345.89 45.8847 345.694 46.146C345.498 46.398 345.246 46.594 344.938 46.734C344.714 46.8367 344.439 46.916 344.112 46.972C343.795 47.028 343.543 47.056 343.356 47.056C343.169 47.056 342.927 47.028 342.628 46.972C342.339 46.916 342.138 46.8647 342.026 46.818C341.737 46.65 341.485 46.4447 341.27 46.202C341.065 45.9593 340.962 45.712 340.962 45.46C340.962 45.2733 341.023 45.1287 341.144 45.026C341.265 44.914 341.424 44.858 341.62 44.858C341.713 44.858 341.811 44.8953 341.914 44.97C342.017 45.0353 342.087 45.1053 342.124 45.18C342.227 45.4227 342.399 45.6047 342.642 45.726C342.885 45.8473 343.132 45.908 343.384 45.908C343.711 45.908 344.014 45.8567 344.294 45.754C344.574 45.642 344.714 45.4927 344.714 45.306C344.714 45.222 344.691 45.1567 344.644 45.11C344.607 45.054 344.551 44.998 344.476 44.942C344.345 44.8487 344.149 44.774 343.888 44.718C343.627 44.6527 343.459 44.6107 343.384 44.592C343.001 44.508 342.628 44.382 342.264 44.214C341.9 44.0367 341.611 43.8267 341.396 43.584C341.181 43.3413 341.074 43.0287 341.074 42.646C341.074 42.394 341.167 42.1327 341.354 41.862C341.541 41.582 341.751 41.386 341.984 41.274C342.152 41.2087 342.432 41.1387 342.824 41.064C343.225 40.9893 343.496 40.952 343.636 40.952C343.851 40.952 344.084 40.9753 344.336 41.022C344.588 41.0593 344.779 41.1247 344.91 41.218C345.162 41.3673 345.367 41.526 345.526 41.694C345.685 41.8527 345.764 42.0347 345.764 42.24C345.764 42.3427 345.741 42.4547 345.694 42.576C345.647 42.688 345.591 42.758 345.526 42.786C345.386 42.8513 345.223 42.884 345.036 42.884C344.952 42.884 344.882 42.8607 344.826 42.814C344.779 42.7673 344.714 42.6927 344.63 42.59C344.527 42.4313 344.429 42.338 344.336 42.31C344.224 42.282 344.061 42.2493 343.846 42.212C343.631 42.1653 343.487 42.142 343.412 42.142C343.197 42.142 342.973 42.2027 342.74 42.324C342.516 42.4453 342.404 42.5853 342.404 42.744C342.404 42.828 342.437 42.8933 342.502 42.94C342.577 42.9867 342.651 43.0287 342.726 43.066C342.81 43.1033 342.866 43.1267 342.894 43.136C343.09 43.2293 343.305 43.3087 343.538 43.374C343.781 43.4393 343.93 43.4813 343.986 43.5C344.49 43.6213 344.826 43.738 344.994 43.85Z" fill="black"/>
<path d="M11 161.288C11 160.887 11.294 160.686 11.882 160.686C12.134 160.686 12.6147 160.695 13.324 160.714C14.108 160.751 14.7007 160.77 15.102 160.77C15.4287 160.77 15.8253 160.751 16.292 160.714C16.6093 160.695 16.81 160.686 16.894 160.686C17.4073 160.705 17.8413 160.798 18.196 160.966C18.2987 161.013 18.3827 161.069 18.448 161.134C18.5133 161.199 18.546 161.307 18.546 161.456C18.546 161.661 18.4807 161.839 18.35 161.988C18.2193 162.128 18.0607 162.198 17.874 162.198C17.6687 162.198 17.37 162.17 16.978 162.114C16.6327 162.049 16.3293 162.016 16.068 162.016C15.816 162.016 15.6247 162.021 15.494 162.03C15.466 162.338 15.452 163.075 15.452 164.242C15.452 165.633 15.494 167.042 15.578 168.47L15.606 168.876C15.606 169.259 15.3867 169.45 14.948 169.45C14.6027 169.45 14.3693 169.371 14.248 169.212C14.1267 169.044 14.066 168.792 14.066 168.456C14.066 167.793 14.0473 166.967 14.01 165.978C13.9727 165.157 13.954 164.573 13.954 164.228C13.954 163.995 13.982 163.281 14.038 162.086L12.4 162.1C11.8773 162.1 11.5133 162.053 11.308 161.96C11.1027 161.857 11 161.633 11 161.288ZM24.4248 168.778C24.4248 168.983 24.3128 169.156 24.0888 169.296C23.8741 169.436 23.6735 169.506 23.4868 169.506C23.1321 169.506 22.8475 169.464 22.6328 169.38C22.4275 169.287 22.2361 169.119 22.0588 168.876C21.8161 169.091 21.4848 169.254 21.0648 169.366C20.6448 169.469 20.2575 169.52 19.9028 169.52C19.3241 169.52 18.8481 169.366 18.4748 169.058C18.1015 168.741 17.9148 168.279 17.9148 167.672C17.9148 167.411 17.9848 167.173 18.1248 166.958C18.2648 166.734 18.4561 166.538 18.6988 166.37C18.9695 166.193 19.2775 166.057 19.6228 165.964C19.9681 165.861 20.3275 165.81 20.7008 165.81C20.8968 165.81 21.1301 165.847 21.4008 165.922C21.6715 165.997 21.8815 166.076 22.0308 166.16V165.936C22.0308 165.432 21.9095 165.087 21.6668 164.9C21.4241 164.704 21.0321 164.606 20.4908 164.606C20.3321 164.606 20.1735 164.639 20.0148 164.704C19.8655 164.769 19.6928 164.858 19.4968 164.97C19.2355 165.11 18.9881 165.18 18.7548 165.18C18.6708 165.18 18.5915 165.124 18.5168 165.012C18.4421 164.891 18.4048 164.783 18.4048 164.69C18.4048 164.419 18.5308 164.186 18.7828 163.99C19.0441 163.794 19.3521 163.649 19.7068 163.556C20.0615 163.453 20.3788 163.402 20.6588 163.402C20.9388 163.402 21.2608 163.458 21.6248 163.57C21.9888 163.673 22.2875 163.817 22.5208 164.004C22.8008 164.247 23.0155 164.531 23.1648 164.858C23.3235 165.175 23.4028 165.525 23.4028 165.908C23.4028 166.029 23.3935 166.211 23.3748 166.454C23.3561 166.715 23.3468 166.939 23.3468 167.126C23.3468 167.21 23.3375 167.336 23.3188 167.504C23.3001 167.709 23.2908 167.873 23.2908 167.994C23.2908 168.106 23.3328 168.204 23.4168 168.288C23.5008 168.363 23.5988 168.4 23.7108 168.4L24.1028 168.386C24.2055 168.386 24.2848 168.423 24.3408 168.498C24.3968 168.573 24.4248 168.666 24.4248 168.778ZM19.9168 168.414C20.3181 168.414 20.6541 168.372 20.9248 168.288C21.1955 168.204 21.5221 168.05 21.9048 167.826C21.9421 167.667 21.9655 167.457 21.9748 167.196C21.4615 166.953 21.0368 166.832 20.7008 166.832C20.3181 166.832 19.9775 166.902 19.6788 167.042C19.3801 167.182 19.2308 167.429 19.2308 167.784C19.2308 167.961 19.3055 168.111 19.4548 168.232C19.6041 168.353 19.7581 168.414 19.9168 168.414ZM26.0696 160.462C26.3962 160.49 26.6809 160.579 26.9236 160.728C27.1662 160.868 27.2876 161.083 27.2876 161.372C27.2876 161.587 27.1849 161.759 26.9796 161.89C26.7836 162.011 26.5456 162.072 26.2656 162.072C25.9949 162.072 25.8082 162.002 25.7056 161.862C25.6029 161.722 25.5516 161.577 25.5516 161.428C25.5516 161.148 25.5796 160.915 25.6356 160.728C25.7009 160.541 25.8456 160.453 26.0696 160.462ZM27.1896 166.664V167.07C27.1896 167.434 27.1989 167.779 27.2176 168.106C27.2456 168.423 27.2782 168.745 27.3156 169.072C27.3156 169.184 27.2502 169.287 27.1196 169.38C26.9889 169.464 26.8676 169.506 26.7556 169.506C26.5782 169.506 26.3962 169.473 26.2096 169.408C26.0322 169.333 25.9249 169.245 25.8876 169.142C25.8316 168.843 25.8036 168.577 25.8036 168.344C25.8036 167.579 25.7802 166.72 25.7336 165.768C25.6962 164.928 25.6776 164.34 25.6776 164.004C25.6776 163.836 25.7616 163.691 25.9296 163.57C26.0976 163.449 26.2749 163.388 26.4616 163.388C26.7322 163.388 26.9189 163.449 27.0216 163.57C27.1336 163.691 27.1896 163.883 27.1896 164.144V166.664ZM30.5056 167.28C30.5056 167.635 30.5569 167.91 30.6596 168.106C30.7716 168.293 30.9116 168.386 31.0796 168.386C31.1729 168.386 31.2616 168.381 31.3456 168.372C31.4296 168.353 31.5136 168.344 31.5976 168.344C31.6909 168.344 31.7703 168.391 31.8356 168.484C31.9103 168.577 31.9476 168.68 31.9476 168.792C31.9476 169.016 31.8403 169.193 31.6256 169.324C31.4203 169.445 31.1403 169.506 30.7856 169.506C30.5336 169.506 30.2769 169.431 30.0156 169.282C29.7636 169.123 29.5536 168.881 29.3856 168.554C29.2176 168.218 29.1336 167.803 29.1336 167.308C29.1336 166.244 29.1523 165.343 29.1896 164.606C29.2363 163.729 29.2596 162.623 29.2596 161.288C29.2596 160.868 29.2829 160.574 29.3296 160.406C29.3856 160.275 29.4743 160.177 29.5956 160.112C29.7263 160.037 29.8616 160 30.0016 160C30.1416 160 30.2629 160.023 30.3656 160.07C30.4776 160.117 30.5523 160.191 30.5896 160.294C30.6269 160.406 30.6503 160.518 30.6596 160.63C30.6783 160.733 30.6876 160.882 30.6876 161.078C30.6876 161.461 30.6736 161.829 30.6456 162.184C30.6269 162.613 30.6176 162.926 30.6176 163.122C30.5429 164.765 30.5056 166.151 30.5056 167.28ZM39.3705 166.118C39.4265 165.913 39.4871 165.633 39.5525 165.278C39.6458 164.858 39.7205 164.541 39.7765 164.326C39.8325 164.111 39.9071 163.929 40.0005 163.78C40.1031 163.612 40.1918 163.5 40.2665 163.444C40.3505 163.388 40.4391 163.36 40.5325 163.36C41.0178 163.36 41.2605 163.547 41.2605 163.92C41.2605 164.107 41.1858 164.457 41.0365 164.97C40.5418 166.463 40.1871 167.621 39.9725 168.442C39.8791 168.787 39.7391 169.053 39.5525 169.24C39.3658 169.417 39.1138 169.506 38.7965 169.506C38.6378 169.506 38.4745 169.431 38.3065 169.282C38.1478 169.123 38.0171 168.932 37.9145 168.708L37.7605 168.33C37.4991 167.667 37.3031 167.159 37.1725 166.804C37.0511 166.44 36.9718 166.113 36.9345 165.824L36.8085 166.272C36.5845 167.075 36.3511 167.821 36.1085 168.512C35.9871 168.867 35.8378 169.123 35.6605 169.282C35.4831 169.431 35.2545 169.506 34.9745 169.506C34.8065 169.506 34.6571 169.469 34.5265 169.394C34.4051 169.319 34.2885 169.193 34.1765 169.016C34.0271 168.773 33.8825 168.447 33.7425 168.036C33.6118 167.625 33.4205 166.986 33.1685 166.118C33.0471 165.745 32.9351 165.353 32.8325 164.942C32.7298 164.522 32.6785 164.228 32.6785 164.06C32.6785 163.864 32.7298 163.71 32.8325 163.598C32.9351 163.486 33.0845 163.43 33.2805 163.43C33.5325 163.43 33.7098 163.481 33.8125 163.584C33.9151 163.677 34.0085 163.822 34.0925 164.018C34.1391 164.354 34.2418 164.83 34.4005 165.446L34.7085 166.762C34.7271 166.865 34.7831 167.079 34.8765 167.406L34.9885 167.812C35.1938 167.373 35.3665 166.953 35.5065 166.552C35.6465 166.151 35.8005 165.656 35.9685 165.068C35.9778 165.031 36.0711 164.709 36.2485 164.102C36.3698 163.906 36.4771 163.761 36.5705 163.668C36.6638 163.565 36.7571 163.514 36.8505 163.514C37.0371 163.514 37.1958 163.575 37.3265 163.696C37.4665 163.808 37.5691 163.948 37.6345 164.116C37.7465 164.48 37.8445 164.811 37.9285 165.11C37.9658 165.231 38.0498 165.525 38.1805 165.992C38.3205 166.449 38.4465 166.837 38.5585 167.154C38.6705 167.471 38.7638 167.695 38.8385 167.826L39.3705 166.118ZM43.1178 160.462C43.4444 160.49 43.7244 160.579 43.9578 160.728C44.2004 160.868 44.3218 161.083 44.3218 161.372C44.3218 161.587 44.2238 161.759 44.0278 161.89C43.8318 162.011 43.5891 162.072 43.2998 162.072C43.0291 162.072 42.8424 162.002 42.7398 161.862C42.6371 161.722 42.5858 161.577 42.5858 161.428C42.5858 161.157 42.6184 160.929 42.6838 160.742C42.7491 160.546 42.8938 160.453 43.1178 160.462ZM42.8378 166.244V165.838C42.8378 165.371 42.8144 164.947 42.7678 164.564C42.7304 164.172 42.7071 163.929 42.6978 163.836C42.7071 163.733 42.7771 163.635 42.9078 163.542C43.0384 163.449 43.1551 163.402 43.2578 163.402C43.4351 163.402 43.6124 163.439 43.7898 163.514C43.9764 163.579 44.0931 163.663 44.1398 163.766C44.1864 164.111 44.2098 164.377 44.2098 164.564C44.2098 164.975 44.2284 165.647 44.2658 166.58L44.2798 167.126L44.3078 167.658C44.3171 167.807 44.3264 167.985 44.3358 168.19C44.3451 168.395 44.3498 168.629 44.3498 168.89C44.3498 169.067 44.2611 169.217 44.0838 169.338C43.9158 169.459 43.7384 169.52 43.5518 169.52C43.2811 169.52 43.0898 169.459 42.9778 169.338C42.8751 169.217 42.8238 169.025 42.8238 168.764L42.8378 166.244ZM52.3704 168.372C52.4171 168.391 52.4918 168.414 52.5944 168.442C52.6971 168.47 52.7718 168.498 52.8184 168.526C52.8651 168.554 52.8884 168.596 52.8884 168.652C52.8978 168.876 52.8138 169.063 52.6364 169.212C52.4684 169.352 52.2678 169.422 52.0344 169.422C51.6704 169.422 51.3858 169.324 51.1804 169.128C50.9751 168.932 50.8258 168.633 50.7324 168.232C50.6951 168.073 50.6764 167.854 50.6764 167.574C50.6764 167.415 50.6858 167.159 50.7044 166.804C50.7231 166.431 50.7324 166.132 50.7324 165.908C50.7324 165.507 50.6904 165.203 50.6064 164.998C50.5224 164.783 50.3218 164.676 50.0044 164.676C49.6778 164.676 49.3838 164.807 49.1224 165.068C48.8704 165.329 48.6558 165.721 48.4784 166.244C48.2358 166.972 48.1004 167.938 48.0724 169.142C48.0724 169.207 48.0024 169.287 47.8624 169.38C47.7318 169.464 47.5731 169.506 47.3864 169.506C47.0411 169.506 46.8264 169.324 46.7424 168.96L46.7284 168.722C46.7284 168.638 46.7378 168.54 46.7564 168.428C46.8684 167.775 46.9244 167.205 46.9244 166.72C46.9244 166.505 46.9198 166.337 46.9104 166.216L46.8964 165.558C46.8964 165.334 46.8404 165.119 46.7284 164.914C46.6164 164.699 46.4858 164.592 46.3364 164.592C46.2898 164.592 46.2244 164.611 46.1404 164.648C46.0564 164.676 45.9864 164.69 45.9304 164.69C45.8371 164.69 45.7344 164.643 45.6224 164.55C45.5198 164.457 45.4684 164.359 45.4684 164.256C45.4684 164.06 45.5338 163.901 45.6644 163.78C45.8044 163.668 45.9398 163.579 46.0704 163.514C46.2104 163.449 46.3691 163.416 46.5464 163.416C46.6958 163.416 46.8171 163.43 46.9104 163.458C47.0038 163.486 47.1298 163.547 47.2884 163.64C47.3818 163.687 47.4891 163.817 47.6104 164.032C47.7318 164.247 47.8251 164.55 47.8904 164.942C48.0771 164.597 48.3898 164.233 48.8284 163.85C49.1551 163.551 49.6264 163.402 50.2424 163.402C50.8024 163.402 51.2458 163.607 51.5724 164.018C51.8991 164.419 52.0624 164.975 52.0624 165.684C52.0624 165.824 52.0531 166.053 52.0344 166.37C52.0064 166.622 51.9924 166.888 51.9924 167.168C51.9924 167.821 52.1184 168.223 52.3704 168.372ZM59.5158 160.686C59.5158 160.779 59.4925 161.036 59.4458 161.456C59.3431 162.483 59.2918 163.523 59.2918 164.578C59.2918 165.502 59.3058 166.207 59.3338 166.692C59.3618 167.177 59.4318 167.551 59.5438 167.812C59.6558 168.064 59.8285 168.19 60.0618 168.19C60.5098 168.19 60.7338 168.339 60.7338 168.638C60.7338 168.834 60.6358 169.002 60.4398 169.142C60.2438 169.273 60.0291 169.338 59.7958 169.338C59.5158 169.338 59.2545 169.273 59.0118 169.142C58.7691 169.011 58.5778 168.811 58.4378 168.54C58.2418 168.829 57.9571 169.063 57.5838 169.24C57.2198 169.408 56.8651 169.492 56.5198 169.492C55.9878 169.492 55.5165 169.38 55.1058 169.156C54.6951 168.932 54.3778 168.629 54.1538 168.246C53.9298 167.854 53.8178 167.425 53.8178 166.958C53.8178 166.51 53.8691 166.081 53.9718 165.67C54.0838 165.25 54.2331 164.905 54.4198 164.634C54.6718 164.279 55.0078 163.999 55.4278 163.794C55.8571 163.579 56.2771 163.472 56.6878 163.472C56.9398 163.472 57.1778 163.523 57.4018 163.626C57.6258 163.719 57.8218 163.836 57.9898 163.976C57.9898 163.351 57.9851 162.959 57.9758 162.8V162.506C57.9758 161.638 58.0318 161.003 58.1438 160.602C58.2465 160.21 58.4938 160.014 58.8858 160.014C59.1005 160.014 59.2591 160.061 59.3618 160.154C59.4645 160.247 59.5158 160.425 59.5158 160.686ZM55.2038 166.93C55.2038 167.359 55.3251 167.705 55.5678 167.966C55.8198 168.227 56.1185 168.358 56.4638 168.358C56.9585 168.358 57.3225 168.204 57.5558 167.896C57.7985 167.588 57.9198 167.191 57.9198 166.706L57.9058 165.32C57.5418 164.919 57.1638 164.718 56.7718 164.718C56.5011 164.718 56.2445 164.788 56.0018 164.928C55.7685 165.059 55.5818 165.259 55.4418 165.53C55.2831 165.838 55.2038 166.305 55.2038 166.93Z" fill="black"/>
<path d="M42.9588 26V17.2727H44.2756V21.0653H48.6264V17.2727H49.9474V26H48.6264V22.1946H44.2756V26H42.9588ZM54.8182 19.4545V20.4773H51.2429V19.4545H54.8182ZM52.2017 17.8864H53.4759V24.0781C53.4759 24.3253 53.5128 24.5114 53.5866 24.6364C53.6605 24.7585 53.7557 24.8423 53.8722 24.8878C53.9915 24.9304 54.1207 24.9517 54.2599 24.9517C54.3622 24.9517 54.4517 24.9446 54.5284 24.9304C54.6051 24.9162 54.6648 24.9048 54.7074 24.8963L54.9375 25.9489C54.8636 25.9773 54.7585 26.0057 54.6222 26.0341C54.4858 26.0653 54.3153 26.0824 54.1108 26.0852C53.7756 26.0909 53.4631 26.0312 53.1733 25.9062C52.8835 25.7812 52.6491 25.5881 52.4702 25.3267C52.2912 25.0653 52.2017 24.7372 52.2017 24.3423V17.8864ZM56.2276 26V19.4545H57.4506V20.5199H57.5316C57.668 20.1591 57.891 19.8778 58.2006 19.6761C58.5103 19.4716 58.881 19.3693 59.3129 19.3693C59.7504 19.3693 60.1168 19.4716 60.4123 19.6761C60.7106 19.8807 60.9308 20.1619 61.0728 20.5199H61.141C61.2972 20.1705 61.5458 19.892 61.8867 19.6847C62.2276 19.4744 62.6339 19.3693 63.1055 19.3693C63.6992 19.3693 64.1836 19.5554 64.5586 19.9276C64.9364 20.2997 65.1254 20.8608 65.1254 21.6108V26H63.8512V21.7301C63.8512 21.2869 63.7305 20.9659 63.489 20.767C63.2475 20.5682 62.9592 20.4688 62.6239 20.4688C62.2092 20.4688 61.8867 20.5966 61.6566 20.8523C61.4265 21.1051 61.3114 21.4304 61.3114 21.8281V26H60.0415V21.6491C60.0415 21.294 59.9308 21.0085 59.7092 20.7926C59.4876 20.5767 59.1992 20.4688 58.8441 20.4688C58.6026 20.4688 58.3796 20.5327 58.1751 20.6605C57.9734 20.7855 57.81 20.9602 57.685 21.1847C57.5629 21.4091 57.5018 21.669 57.5018 21.9645V26H56.2276ZM68.1072 17.2727V26H66.8331V17.2727H68.1072Z" fill="black"/>
<path d="M28.2074 64.1108H26.8778C26.8267 63.8267 26.7315 63.5767 26.5923 63.3608C26.4531 63.1449 26.2827 62.9616 26.081 62.8111C25.8793 62.6605 25.6534 62.5469 25.4034 62.4702C25.1563 62.3935 24.8935 62.3551 24.6151 62.3551C24.1122 62.3551 23.6619 62.4815 23.2642 62.7344C22.8693 62.9872 22.5568 63.358 22.3267 63.8466C22.0994 64.3352 21.9858 64.9318 21.9858 65.6364C21.9858 66.3466 22.0994 66.946 22.3267 67.4347C22.5568 67.9233 22.8707 68.2926 23.2685 68.5426C23.6662 68.7926 24.1136 68.9176 24.6108 68.9176C24.8864 68.9176 25.1477 68.8807 25.3949 68.8068C25.6449 68.7301 25.8707 68.6179 26.0724 68.4702C26.2741 68.3224 26.4446 68.142 26.5838 67.929C26.7259 67.7131 26.8239 67.4659 26.8778 67.1875L28.2074 67.1918C28.1364 67.6207 27.9986 68.0156 27.794 68.3764C27.5923 68.7344 27.3324 69.044 27.0142 69.3054C26.6989 69.5639 26.3381 69.7642 25.9318 69.9062C25.5256 70.0483 25.0824 70.1193 24.6023 70.1193C23.8466 70.1193 23.1733 69.9403 22.5824 69.5824C21.9915 69.2216 21.5256 68.706 21.1847 68.0355C20.8466 67.3651 20.6776 66.5653 20.6776 65.6364C20.6776 64.7045 20.848 63.9048 21.1889 63.2372C21.5298 62.5668 21.9957 62.0526 22.5866 61.6946C23.1776 61.3338 23.8494 61.1534 24.6023 61.1534C25.0653 61.1534 25.4972 61.2202 25.8977 61.3537C26.3011 61.4844 26.6634 61.6776 26.9844 61.9332C27.3054 62.1861 27.571 62.4957 27.7812 62.8622C27.9915 63.2259 28.1335 63.642 28.2074 64.1108ZM34.5856 65.0526L33.4308 65.2571C33.3825 65.1094 33.3058 64.9687 33.2006 64.8352C33.0984 64.7017 32.9592 64.5923 32.783 64.5071C32.6069 64.4219 32.3867 64.3793 32.1225 64.3793C31.7617 64.3793 31.4606 64.4602 31.2191 64.6222C30.9776 64.7812 30.8569 64.9872 30.8569 65.2401C30.8569 65.4588 30.9379 65.6349 31.0998 65.7685C31.2617 65.902 31.5231 66.0114 31.8839 66.0966L32.9237 66.3352C33.5259 66.4744 33.9748 66.6889 34.2702 66.9787C34.5657 67.2685 34.7134 67.6449 34.7134 68.108C34.7134 68.5 34.5998 68.8494 34.3725 69.1562C34.1481 69.4602 33.8342 69.6989 33.4308 69.8722C33.0302 70.0455 32.5657 70.1321 32.0373 70.1321C31.3043 70.1321 30.7063 69.9759 30.2433 69.6634C29.7802 69.348 29.4961 68.9006 29.391 68.321L30.6225 68.1335C30.6992 68.4545 30.8569 68.6974 31.0955 68.8622C31.3342 69.0241 31.6452 69.1051 32.0288 69.1051C32.4464 69.1051 32.7802 69.0185 33.0302 68.8452C33.2802 68.669 33.4052 68.4545 33.4052 68.2017C33.4052 67.9972 33.3285 67.8253 33.1751 67.6861C33.0245 67.5469 32.793 67.4418 32.4805 67.3707L31.3725 67.1278C30.7617 66.9886 30.31 66.767 30.0174 66.4631C29.7276 66.1591 29.5827 65.7741 29.5827 65.3082C29.5827 64.9219 29.6907 64.5838 29.9066 64.294C30.1225 64.0043 30.4208 63.7784 30.8015 63.6165C31.1822 63.4517 31.6183 63.3693 32.1097 63.3693C32.8171 63.3693 33.3739 63.5227 33.7802 63.8295C34.1864 64.1335 34.4549 64.5412 34.5856 65.0526ZM41.0192 65.0526L39.8643 65.2571C39.8161 65.1094 39.7393 64.9687 39.6342 64.8352C39.532 64.7017 39.3928 64.5923 39.2166 64.5071C39.0405 64.4219 38.8203 64.3793 38.5561 64.3793C38.1953 64.3793 37.8942 64.4602 37.6527 64.6222C37.4112 64.7812 37.2905 64.9872 37.2905 65.2401C37.2905 65.4588 37.3714 65.6349 37.5334 65.7685C37.6953 65.902 37.9567 66.0114 38.3175 66.0966L39.3572 66.3352C39.9595 66.4744 40.4084 66.6889 40.7038 66.9787C40.9993 67.2685 41.147 67.6449 41.147 68.108C41.147 68.5 41.0334 68.8494 40.8061 69.1562C40.5817 69.4602 40.2678 69.6989 39.8643 69.8722C39.4638 70.0455 38.9993 70.1321 38.4709 70.1321C37.7379 70.1321 37.1399 69.9759 36.6768 69.6634C36.2138 69.348 35.9297 68.9006 35.8246 68.321L37.0561 68.1335C37.1328 68.4545 37.2905 68.6974 37.5291 68.8622C37.7678 69.0241 38.0788 69.1051 38.4624 69.1051C38.88 69.1051 39.2138 69.0185 39.4638 68.8452C39.7138 68.669 39.8388 68.4545 39.8388 68.2017C39.8388 67.9972 39.7621 67.8253 39.6087 67.6861C39.4581 67.5469 39.2266 67.4418 38.9141 67.3707L37.8061 67.1278C37.1953 66.9886 36.7436 66.767 36.451 66.4631C36.1612 66.1591 36.0163 65.7741 36.0163 65.3082C36.0163 64.9219 36.1243 64.5838 36.3402 64.294C36.5561 64.0043 36.8544 63.7784 37.2351 63.6165C37.6158 63.4517 38.0518 63.3693 38.5433 63.3693C39.2507 63.3693 39.8075 63.5227 40.2138 63.8295C40.62 64.1335 40.8885 64.5412 41.0192 65.0526Z" fill="black"/>
<path d="M34.8565 107.455H36.1307V114.426C36.1307 114.864 36.0511 115.233 35.892 115.534C35.7358 115.835 35.5028 116.064 35.1932 116.22C34.8864 116.376 34.5071 116.455 34.0554 116.455C34.0099 116.455 33.9673 116.455 33.9276 116.455C33.8849 116.455 33.8409 116.453 33.7955 116.45V115.355C33.8352 115.355 33.8707 115.355 33.902 115.355C33.9304 115.355 33.9631 115.355 34 115.355C34.3011 115.355 34.5185 115.274 34.652 115.112C34.7884 114.953 34.8565 114.722 34.8565 114.418V107.455ZM35.4872 106.445C35.2656 106.445 35.0753 106.371 34.9162 106.223C34.7599 106.072 34.6818 105.893 34.6818 105.686C34.6818 105.476 34.7599 105.297 34.9162 105.149C35.0753 104.999 35.2656 104.923 35.4872 104.923C35.7088 104.923 35.8977 104.999 36.054 105.149C36.2131 105.297 36.2926 105.476 36.2926 105.686C36.2926 105.893 36.2131 106.072 36.054 106.223C35.8977 106.371 35.7088 106.445 35.4872 106.445ZM39.7496 114.145C39.3349 114.145 38.9599 114.068 38.6246 113.915C38.2894 113.759 38.0238 113.533 37.8278 113.237C37.6346 112.942 37.538 112.58 37.538 112.151C37.538 111.781 37.609 111.477 37.7511 111.239C37.8931 111 38.0849 110.811 38.3263 110.672C38.5678 110.533 38.8377 110.428 39.136 110.357C39.4343 110.286 39.7383 110.232 40.0479 110.195C40.44 110.149 40.7582 110.112 41.0025 110.084C41.2468 110.053 41.4244 110.003 41.5352 109.935C41.646 109.866 41.7013 109.756 41.7013 109.602V109.572C41.7013 109.2 41.5962 108.912 41.386 108.707C41.1786 108.503 40.869 108.401 40.457 108.401C40.0281 108.401 39.69 108.496 39.4428 108.686C39.1985 108.874 39.0295 109.082 38.9357 109.312L37.7383 109.04C37.8803 108.642 38.0877 108.321 38.3604 108.077C38.636 107.83 38.9528 107.651 39.3107 107.54C39.6687 107.426 40.0451 107.369 40.44 107.369C40.7013 107.369 40.9783 107.401 41.271 107.463C41.5664 107.523 41.842 107.634 42.0977 107.795C42.3562 107.957 42.5678 108.189 42.7326 108.49C42.8974 108.788 42.9798 109.176 42.9798 109.653V114H41.7354V113.105H41.6843C41.6019 113.27 41.4783 113.432 41.3136 113.591C41.1488 113.75 40.9371 113.882 40.6786 113.987C40.4201 114.092 40.1104 114.145 39.7496 114.145ZM40.0266 113.122C40.3789 113.122 40.68 113.053 40.93 112.913C41.1829 112.774 41.3746 112.592 41.5053 112.368C41.6388 112.141 41.7056 111.898 41.7056 111.639V110.795C41.6602 110.841 41.5721 110.884 41.4414 110.923C41.3136 110.96 41.1673 110.993 41.0025 111.021C40.8377 111.047 40.6772 111.071 40.521 111.094C40.3647 111.114 40.234 111.131 40.1289 111.145C39.8817 111.176 39.6559 111.229 39.4513 111.303C39.2496 111.376 39.0877 111.483 38.9656 111.622C38.8462 111.759 38.7866 111.94 38.7866 112.168C38.7866 112.483 38.9031 112.722 39.136 112.884C39.369 113.043 39.6658 113.122 40.0266 113.122ZM50.0419 107.455L47.6683 114H46.3047L43.9268 107.455H45.2947L46.9524 112.491H47.0206L48.674 107.455H50.0419ZM52.9567 114.145C52.5419 114.145 52.1669 114.068 51.8317 113.915C51.4964 113.759 51.2308 113.533 51.0348 113.237C50.8416 112.942 50.745 112.58 50.745 112.151C50.745 111.781 50.8161 111.477 50.9581 111.239C51.1001 111 51.2919 110.811 51.5334 110.672C51.7749 110.533 52.0447 110.428 52.343 110.357C52.6413 110.286 52.9453 110.232 53.255 110.195C53.647 110.149 53.9652 110.112 54.2095 110.084C54.4538 110.053 54.6314 110.003 54.7422 109.935C54.853 109.866 54.9084 109.756 54.9084 109.602V109.572C54.9084 109.2 54.8033 108.912 54.593 108.707C54.3857 108.503 54.076 108.401 53.6641 108.401C53.2351 108.401 52.897 108.496 52.6499 108.686C52.4055 108.874 52.2365 109.082 52.1428 109.312L50.9453 109.04C51.0874 108.642 51.2947 108.321 51.5675 108.077C51.843 107.83 52.1598 107.651 52.5178 107.54C52.8757 107.426 53.2521 107.369 53.647 107.369C53.9084 107.369 54.1854 107.401 54.478 107.463C54.7734 107.523 55.049 107.634 55.3047 107.795C55.5632 107.957 55.7749 108.189 55.9396 108.49C56.1044 108.788 56.1868 109.176 56.1868 109.653V114H54.9425V113.105H54.8913C54.8089 113.27 54.6854 113.432 54.5206 113.591C54.3558 113.75 54.1442 113.882 53.8857 113.987C53.6271 114.092 53.3175 114.145 52.9567 114.145ZM53.2337 113.122C53.5859 113.122 53.8871 113.053 54.1371 112.913C54.3899 112.774 54.5817 112.592 54.7124 112.368C54.8459 112.141 54.9126 111.898 54.9126 111.639V110.795C54.8672 110.841 54.7791 110.884 54.6484 110.923C54.5206 110.96 54.3743 110.993 54.2095 111.021C54.0447 111.047 53.8842 111.071 53.728 111.094C53.5717 111.114 53.4411 111.131 53.3359 111.145C53.0888 111.176 52.8629 111.229 52.6584 111.303C52.4567 111.376 52.2947 111.483 52.1726 111.622C52.0533 111.759 51.9936 111.94 51.9936 112.168C51.9936 112.483 52.1101 112.722 52.343 112.884C52.576 113.043 52.8729 113.122 53.2337 113.122ZM62.7461 107.565C62.7006 107.162 62.5131 106.849 62.1836 106.628C61.854 106.403 61.4393 106.291 60.9393 106.291C60.5813 106.291 60.2717 106.348 60.0103 106.462C59.7489 106.572 59.5458 106.726 59.4009 106.922C59.2589 107.115 59.1879 107.335 59.1879 107.582C59.1879 107.79 59.2362 107.969 59.3327 108.119C59.4322 108.27 59.5614 108.396 59.7205 108.499C59.8825 108.598 60.0558 108.682 60.2404 108.75C60.4251 108.815 60.6026 108.869 60.7731 108.912L61.6254 109.134C61.9038 109.202 62.1893 109.294 62.4819 109.411C62.7745 109.527 63.0458 109.68 63.2958 109.871C63.5458 110.061 63.7475 110.297 63.9009 110.578C64.0572 110.859 64.1353 111.196 64.1353 111.588C64.1353 112.082 64.0075 112.521 63.7518 112.905C63.4989 113.288 63.131 113.591 62.6481 113.812C62.168 114.034 61.587 114.145 60.9052 114.145C60.2518 114.145 59.6864 114.041 59.2092 113.834C58.7319 113.626 58.3583 113.332 58.0884 112.952C57.8185 112.568 57.6694 112.114 57.641 111.588H58.962C58.9876 111.903 59.0898 112.166 59.2688 112.376C59.4506 112.584 59.6822 112.739 59.9634 112.841C60.2475 112.94 60.5586 112.99 60.8967 112.99C61.2688 112.99 61.5998 112.932 61.8896 112.815C62.1822 112.696 62.4123 112.531 62.5799 112.321C62.7475 112.108 62.8313 111.859 62.8313 111.575C62.8313 111.317 62.7575 111.105 62.6097 110.94C62.4648 110.776 62.2674 110.639 62.0174 110.531C61.7702 110.423 61.4904 110.328 61.1779 110.246L60.1467 109.964C59.4478 109.774 58.8938 109.494 58.4847 109.125C58.0785 108.756 57.8754 108.267 57.8754 107.659C57.8754 107.156 58.0117 106.717 58.2844 106.342C58.5572 105.967 58.9265 105.676 59.3924 105.469C59.8583 105.259 60.3839 105.153 60.9691 105.153C61.56 105.153 62.0813 105.257 62.533 105.464C62.9876 105.672 63.3455 105.957 63.6069 106.321C63.8683 106.682 64.0046 107.097 64.016 107.565H62.7461ZM68.3636 114.132C67.7301 114.132 67.1847 113.989 66.7273 113.702C66.2727 113.412 65.9233 113.013 65.679 112.504C65.4347 111.996 65.3125 111.413 65.3125 110.757C65.3125 110.092 65.4375 109.506 65.6875 108.997C65.9375 108.486 66.2898 108.087 66.7443 107.8C67.1989 107.513 67.7344 107.369 68.3509 107.369C68.848 107.369 69.2912 107.462 69.6804 107.646C70.0696 107.828 70.3835 108.084 70.6222 108.413C70.8636 108.743 71.0071 109.128 71.0526 109.568H69.8125C69.7443 109.261 69.5881 108.997 69.3438 108.776C69.1023 108.554 68.7784 108.443 68.3722 108.443C68.017 108.443 67.706 108.537 67.4389 108.724C67.1747 108.909 66.9688 109.173 66.821 109.517C66.6733 109.858 66.5994 110.261 66.5994 110.727C66.5994 111.205 66.6719 111.616 66.8168 111.963C66.9616 112.31 67.1662 112.578 67.4304 112.768C67.6974 112.959 68.0114 113.054 68.3722 113.054C68.6136 113.054 68.8324 113.01 69.0284 112.922C69.2273 112.831 69.3935 112.702 69.527 112.534C69.6634 112.366 69.7585 112.165 69.8125 111.929H71.0526C71.0071 112.352 70.8693 112.73 70.6392 113.062C70.4091 113.395 70.1009 113.656 69.7145 113.847C69.331 114.037 68.8807 114.132 68.3636 114.132ZM72.4151 114V107.455H73.6467V108.494H73.7148C73.8342 108.142 74.0444 107.865 74.3455 107.663C74.6495 107.459 74.9933 107.357 75.3768 107.357C75.4563 107.357 75.5501 107.359 75.658 107.365C75.7688 107.371 75.8555 107.378 75.918 107.386V108.605C75.8668 108.591 75.7759 108.575 75.6452 108.558C75.5146 108.538 75.3839 108.528 75.2532 108.528C74.9521 108.528 74.6836 108.592 74.4478 108.72C74.2148 108.845 74.0302 109.02 73.8938 109.244C73.7575 109.466 73.6893 109.719 73.6893 110.003V114H72.4151ZM77.0206 114V107.455H78.2947V114H77.0206ZM77.6641 106.445C77.4425 106.445 77.2521 106.371 77.093 106.223C76.9368 106.072 76.8587 105.893 76.8587 105.686C76.8587 105.476 76.9368 105.297 77.093 105.149C77.2521 104.999 77.4425 104.923 77.6641 104.923C77.8857 104.923 78.0746 104.999 78.2308 105.149C78.3899 105.297 78.4695 105.476 78.4695 105.686C78.4695 105.893 78.3899 106.072 78.2308 106.223C78.0746 106.371 77.8857 106.445 77.6641 106.445ZM80.0089 116.455V107.455H81.2532V108.516H81.3597C81.4336 108.379 81.5401 108.222 81.6793 108.043C81.8185 107.864 82.0117 107.707 82.2589 107.574C82.506 107.438 82.8327 107.369 83.239 107.369C83.7674 107.369 84.239 107.503 84.6538 107.77C85.0685 108.037 85.3938 108.422 85.6296 108.925C85.8683 109.428 85.9876 110.033 85.9876 110.74C85.9876 111.447 85.8697 112.054 85.6339 112.56C85.3981 113.062 85.0742 113.45 84.6623 113.723C84.2504 113.993 83.7802 114.128 83.2518 114.128C82.854 114.128 82.5288 114.061 82.2759 113.928C82.0259 113.794 81.8299 113.638 81.6879 113.459C81.5458 113.28 81.4364 113.121 81.3597 112.982H81.283V116.455H80.0089ZM81.2575 110.727C81.2575 111.187 81.3242 111.591 81.4577 111.938C81.5913 112.284 81.7844 112.555 82.0373 112.751C82.2901 112.945 82.5998 113.041 82.9663 113.041C83.3469 113.041 83.6651 112.94 83.9208 112.739C84.1765 112.534 84.3697 112.257 84.5004 111.908C84.6339 111.558 84.7006 111.165 84.7006 110.727C84.7006 110.295 84.6353 109.908 84.5046 109.564C84.3768 109.22 84.1836 108.949 83.9251 108.75C83.6694 108.551 83.3498 108.452 82.9663 108.452C82.5969 108.452 82.2844 108.547 82.0288 108.737C81.7759 108.928 81.5842 109.193 81.4535 109.534C81.3228 109.875 81.2575 110.273 81.2575 110.727ZM90.4705 107.455V108.477H86.8952V107.455H90.4705ZM87.854 105.886H89.1282V112.078C89.1282 112.325 89.1651 112.511 89.239 112.636C89.3129 112.759 89.408 112.842 89.5245 112.888C89.6438 112.93 89.7731 112.952 89.9123 112.952C90.0146 112.952 90.104 112.945 90.1808 112.93C90.2575 112.916 90.3171 112.905 90.3597 112.896L90.5898 113.949C90.516 113.977 90.4109 114.006 90.2745 114.034C90.1381 114.065 89.9677 114.082 89.7631 114.085C89.4279 114.091 89.1154 114.031 88.8256 113.906C88.5359 113.781 88.3015 113.588 88.1225 113.327C87.9435 113.065 87.854 112.737 87.854 112.342V105.886Z" fill="black"/>
<path d="M307.865 200.03C307.783 199.771 307.672 199.54 307.533 199.335C307.396 199.128 307.233 198.952 307.043 198.807C306.852 198.659 306.635 198.547 306.391 198.47C306.149 198.393 305.884 198.355 305.594 198.355C305.102 198.355 304.659 198.482 304.264 198.734C303.869 198.987 303.557 199.358 303.327 199.847C303.099 200.332 302.986 200.928 302.986 201.632C302.986 202.339 303.101 202.937 303.331 203.426C303.561 203.915 303.876 204.286 304.277 204.538C304.678 204.791 305.134 204.918 305.645 204.918C306.119 204.918 306.533 204.821 306.885 204.628C307.24 204.435 307.514 204.162 307.707 203.81C307.903 203.455 308.001 203.037 308.001 202.557L308.342 202.621H305.845V201.534H309.276V202.527C309.276 203.26 309.119 203.896 308.807 204.436C308.497 204.973 308.068 205.388 307.52 205.68C306.974 205.973 306.349 206.119 305.645 206.119C304.855 206.119 304.162 205.938 303.565 205.574C302.972 205.21 302.509 204.695 302.176 204.027C301.844 203.357 301.678 202.561 301.678 201.641C301.678 200.945 301.774 200.32 301.967 199.766C302.161 199.212 302.432 198.741 302.781 198.355C303.134 197.966 303.547 197.669 304.021 197.464C304.499 197.257 305.02 197.153 305.585 197.153C306.057 197.153 306.496 197.223 306.902 197.362C307.311 197.501 307.675 197.699 307.993 197.955C308.314 198.21 308.58 198.514 308.79 198.866C309 199.216 309.142 199.604 309.216 200.03H307.865ZM311.255 206V199.455H312.529V206H311.255ZM311.898 198.445C311.677 198.445 311.487 198.371 311.327 198.223C311.171 198.072 311.093 197.893 311.093 197.686C311.093 197.476 311.171 197.297 311.327 197.149C311.487 196.999 311.677 196.923 311.898 196.923C312.12 196.923 312.309 196.999 312.465 197.149C312.624 197.297 312.704 197.476 312.704 197.686C312.704 197.893 312.624 198.072 312.465 198.223C312.309 198.371 312.12 198.445 311.898 198.445ZM317.299 199.455V200.477H313.723V199.455H317.299ZM314.682 197.886H315.956V204.078C315.956 204.325 315.993 204.511 316.067 204.636C316.141 204.759 316.236 204.842 316.353 204.888C316.472 204.93 316.601 204.952 316.74 204.952C316.843 204.952 316.932 204.945 317.009 204.93C317.086 204.916 317.145 204.905 317.188 204.896L317.418 205.949C317.344 205.977 317.239 206.006 317.103 206.034C316.966 206.065 316.796 206.082 316.591 206.085C316.256 206.091 315.944 206.031 315.654 205.906C315.364 205.781 315.13 205.588 314.951 205.327C314.772 205.065 314.682 204.737 314.682 204.342V197.886ZM321.986 206V197.273H323.303V201.065H327.654V197.273H328.975V206H327.654V202.195H323.303V206H321.986ZM334.936 203.286V199.455H336.215V206H334.962V204.866H334.894C334.743 205.216 334.502 205.507 334.169 205.74C333.84 205.97 333.429 206.085 332.938 206.085C332.517 206.085 332.145 205.993 331.821 205.808C331.5 205.621 331.248 205.344 331.063 204.977C330.881 204.611 330.79 204.158 330.79 203.618V199.455H332.064V203.464C332.064 203.911 332.188 204.266 332.435 204.53C332.682 204.794 333.003 204.926 333.398 204.926C333.637 204.926 333.874 204.866 334.11 204.747C334.348 204.628 334.546 204.447 334.702 204.206C334.861 203.964 334.939 203.658 334.936 203.286ZM338.029 206V197.273H339.303V200.516H339.38C339.454 200.379 339.56 200.222 339.7 200.043C339.839 199.864 340.032 199.707 340.279 199.574C340.526 199.438 340.853 199.369 341.259 199.369C341.788 199.369 342.259 199.503 342.674 199.77C343.089 200.037 343.414 200.422 343.65 200.925C343.888 201.428 344.008 202.033 344.008 202.74C344.008 203.447 343.89 204.054 343.654 204.56C343.418 205.062 343.094 205.45 342.683 205.723C342.271 205.993 341.8 206.128 341.272 206.128C340.874 206.128 340.549 206.061 340.296 205.928C340.046 205.794 339.85 205.638 339.708 205.459C339.566 205.28 339.457 205.121 339.38 204.982H339.273V206H338.029ZM339.278 202.727C339.278 203.187 339.344 203.591 339.478 203.938C339.612 204.284 339.805 204.555 340.058 204.751C340.31 204.945 340.62 205.041 340.987 205.041C341.367 205.041 341.685 204.94 341.941 204.739C342.197 204.534 342.39 204.257 342.521 203.908C342.654 203.558 342.721 203.165 342.721 202.727C342.721 202.295 342.656 201.908 342.525 201.564C342.397 201.22 342.204 200.949 341.945 200.75C341.69 200.551 341.37 200.452 340.987 200.452C340.617 200.452 340.305 200.547 340.049 200.737C339.796 200.928 339.604 201.193 339.474 201.534C339.343 201.875 339.278 202.273 339.278 202.727Z" fill="black"/>
<path d="M285.959 138V129.273H289.155C289.774 129.273 290.287 129.375 290.693 129.58C291.099 129.781 291.403 130.055 291.605 130.402C291.807 130.746 291.908 131.134 291.908 131.565C291.908 131.929 291.841 132.236 291.707 132.486C291.574 132.733 291.395 132.932 291.17 133.082C290.949 133.23 290.705 133.338 290.438 133.406V133.491C290.727 133.506 291.01 133.599 291.286 133.773C291.564 133.943 291.794 134.186 291.976 134.501C292.158 134.817 292.249 135.2 292.249 135.652C292.249 136.098 292.143 136.499 291.933 136.854C291.726 137.206 291.405 137.486 290.97 137.693C290.536 137.898 289.98 138 289.304 138H285.959ZM287.276 136.871H289.176C289.807 136.871 290.259 136.749 290.531 136.504C290.804 136.26 290.94 135.955 290.94 135.588C290.94 135.312 290.871 135.06 290.732 134.83C290.592 134.599 290.393 134.416 290.135 134.28C289.879 134.143 289.575 134.075 289.223 134.075H287.276V136.871ZM287.276 133.048H289.04C289.335 133.048 289.601 132.991 289.837 132.878C290.075 132.764 290.264 132.605 290.403 132.401C290.545 132.193 290.616 131.949 290.616 131.668C290.616 131.307 290.49 131.004 290.237 130.76C289.984 130.516 289.597 130.393 289.074 130.393H287.276V133.048ZM296.465 138.132C295.852 138.132 295.316 137.991 294.859 137.71C294.401 137.429 294.046 137.036 293.793 136.53C293.54 136.024 293.414 135.433 293.414 134.757C293.414 134.078 293.54 133.484 293.793 132.976C294.046 132.467 294.401 132.072 294.859 131.791C295.316 131.51 295.852 131.369 296.465 131.369C297.079 131.369 297.614 131.51 298.072 131.791C298.529 132.072 298.884 132.467 299.137 132.976C299.39 133.484 299.516 134.078 299.516 134.757C299.516 135.433 299.39 136.024 299.137 136.53C298.884 137.036 298.529 137.429 298.072 137.71C297.614 137.991 297.079 138.132 296.465 138.132ZM296.469 137.062C296.867 137.062 297.197 136.957 297.458 136.747C297.719 136.537 297.913 136.257 298.038 135.908C298.165 135.558 298.229 135.173 298.229 134.753C298.229 134.335 298.165 133.952 298.038 133.602C297.913 133.25 297.719 132.967 297.458 132.754C297.197 132.541 296.867 132.435 296.469 132.435C296.069 132.435 295.737 132.541 295.472 132.754C295.211 132.967 295.016 133.25 294.888 133.602C294.763 133.952 294.701 134.335 294.701 134.753C294.701 135.173 294.763 135.558 294.888 135.908C295.016 136.257 295.211 136.537 295.472 136.747C295.737 136.957 296.069 137.062 296.469 137.062ZM303.696 138.132C303.082 138.132 302.547 137.991 302.089 137.71C301.632 137.429 301.277 137.036 301.024 136.53C300.771 136.024 300.645 135.433 300.645 134.757C300.645 134.078 300.771 133.484 301.024 132.976C301.277 132.467 301.632 132.072 302.089 131.791C302.547 131.51 303.082 131.369 303.696 131.369C304.309 131.369 304.845 131.51 305.302 131.791C305.76 132.072 306.115 132.467 306.368 132.976C306.62 133.484 306.747 134.078 306.747 134.757C306.747 135.433 306.62 136.024 306.368 136.53C306.115 137.036 305.76 137.429 305.302 137.71C304.845 137.991 304.309 138.132 303.696 138.132ZM303.7 137.062C304.098 137.062 304.427 136.957 304.689 136.747C304.95 136.537 305.143 136.257 305.268 135.908C305.396 135.558 305.46 135.173 305.46 134.753C305.46 134.335 305.396 133.952 305.268 133.602C305.143 133.25 304.95 132.967 304.689 132.754C304.427 132.541 304.098 132.435 303.7 132.435C303.299 132.435 302.967 132.541 302.703 132.754C302.441 132.967 302.247 133.25 302.119 133.602C301.994 133.952 301.931 134.335 301.931 134.753C301.931 135.173 301.994 135.558 302.119 135.908C302.247 136.257 302.441 136.537 302.703 136.747C302.967 136.957 303.299 137.062 303.7 137.062ZM311.224 131.455V132.477H307.649V131.455H311.224ZM308.608 129.886H309.882V136.078C309.882 136.325 309.919 136.511 309.993 136.636C310.067 136.759 310.162 136.842 310.278 136.888C310.398 136.93 310.527 136.952 310.666 136.952C310.768 136.952 310.858 136.945 310.935 136.93C311.011 136.916 311.071 136.905 311.114 136.896L311.344 137.949C311.27 137.977 311.165 138.006 311.028 138.034C310.892 138.065 310.722 138.082 310.517 138.085C310.182 138.091 309.869 138.031 309.58 137.906C309.29 137.781 309.055 137.588 308.876 137.327C308.697 137.065 308.608 136.737 308.608 136.342V129.886ZM317.496 131.565C317.451 131.162 317.263 130.849 316.934 130.628C316.604 130.403 316.189 130.291 315.689 130.291C315.331 130.291 315.022 130.348 314.76 130.462C314.499 130.572 314.296 130.726 314.151 130.922C314.009 131.115 313.938 131.335 313.938 131.582C313.938 131.79 313.986 131.969 314.083 132.119C314.182 132.27 314.311 132.396 314.471 132.499C314.632 132.598 314.806 132.682 314.99 132.75C315.175 132.815 315.353 132.869 315.523 132.912L316.375 133.134C316.654 133.202 316.939 133.294 317.232 133.411C317.525 133.527 317.796 133.68 318.046 133.871C318.296 134.061 318.498 134.297 318.651 134.578C318.807 134.859 318.885 135.196 318.885 135.588C318.885 136.082 318.757 136.521 318.502 136.905C318.249 137.288 317.881 137.591 317.398 137.812C316.918 138.034 316.337 138.145 315.655 138.145C315.002 138.145 314.436 138.041 313.959 137.834C313.482 137.626 313.108 137.332 312.838 136.952C312.569 136.568 312.419 136.114 312.391 135.588H313.712C313.738 135.903 313.84 136.166 314.019 136.376C314.201 136.584 314.432 136.739 314.713 136.841C314.998 136.94 315.309 136.99 315.647 136.99C316.019 136.99 316.35 136.932 316.64 136.815C316.932 136.696 317.162 136.531 317.33 136.321C317.498 136.108 317.581 135.859 317.581 135.575C317.581 135.317 317.507 135.105 317.36 134.94C317.215 134.776 317.017 134.639 316.767 134.531C316.52 134.423 316.24 134.328 315.928 134.246L314.897 133.964C314.198 133.774 313.644 133.494 313.235 133.125C312.828 132.756 312.625 132.267 312.625 131.659C312.625 131.156 312.762 130.717 313.034 130.342C313.307 129.967 313.676 129.676 314.142 129.469C314.608 129.259 315.134 129.153 315.719 129.153C316.31 129.153 316.831 129.257 317.283 129.464C317.738 129.672 318.096 129.957 318.357 130.321C318.618 130.682 318.755 131.097 318.766 131.565H317.496ZM323.412 131.455V132.477H319.837V131.455H323.412ZM320.795 129.886H322.07V136.078C322.07 136.325 322.107 136.511 322.18 136.636C322.254 136.759 322.349 136.842 322.466 136.888C322.585 136.93 322.714 136.952 322.854 136.952C322.956 136.952 323.045 136.945 323.122 136.93C323.199 136.916 323.259 136.905 323.301 136.896L323.531 137.949C323.457 137.977 323.352 138.006 323.216 138.034C323.08 138.065 322.909 138.082 322.705 138.085C322.369 138.091 322.057 138.031 321.767 137.906C321.477 137.781 321.243 137.588 321.064 137.327C320.885 137.065 320.795 136.737 320.795 136.342V129.886ZM324.821 138V131.455H326.053V132.494H326.121C326.24 132.142 326.451 131.865 326.752 131.663C327.056 131.459 327.4 131.357 327.783 131.357C327.863 131.357 327.956 131.359 328.064 131.365C328.175 131.371 328.262 131.378 328.324 131.386V132.605C328.273 132.591 328.182 132.575 328.051 132.558C327.921 132.538 327.79 132.528 327.659 132.528C327.358 132.528 327.09 132.592 326.854 132.72C326.621 132.845 326.436 133.02 326.3 133.244C326.164 133.466 326.096 133.719 326.096 134.003V138H324.821ZM331.273 138.145C330.858 138.145 330.483 138.068 330.148 137.915C329.813 137.759 329.547 137.533 329.351 137.237C329.158 136.942 329.061 136.58 329.061 136.151C329.061 135.781 329.132 135.477 329.275 135.239C329.417 135 329.608 134.811 329.85 134.672C330.091 134.533 330.361 134.428 330.659 134.357C330.958 134.286 331.262 134.232 331.571 134.195C331.963 134.149 332.282 134.112 332.526 134.084C332.77 134.053 332.948 134.003 333.059 133.935C333.169 133.866 333.225 133.756 333.225 133.602V133.572C333.225 133.2 333.12 132.912 332.909 132.707C332.702 132.503 332.392 132.401 331.98 132.401C331.551 132.401 331.213 132.496 330.966 132.686C330.722 132.874 330.553 133.082 330.459 133.312L329.262 133.04C329.404 132.642 329.611 132.321 329.884 132.077C330.159 131.83 330.476 131.651 330.834 131.54C331.192 131.426 331.569 131.369 331.963 131.369C332.225 131.369 332.502 131.401 332.794 131.463C333.09 131.523 333.365 131.634 333.621 131.795C333.88 131.957 334.091 132.189 334.256 132.49C334.421 132.788 334.503 133.176 334.503 133.653V138H333.259V137.105H333.208C333.125 137.27 333.002 137.432 332.837 137.591C332.672 137.75 332.461 137.882 332.202 137.987C331.944 138.092 331.634 138.145 331.273 138.145ZM331.55 137.122C331.902 137.122 332.203 137.053 332.453 136.913C332.706 136.774 332.898 136.592 333.029 136.368C333.162 136.141 333.229 135.898 333.229 135.639V134.795C333.184 134.841 333.096 134.884 332.965 134.923C332.837 134.96 332.691 134.993 332.526 135.021C332.361 135.047 332.201 135.071 332.044 135.094C331.888 135.114 331.757 135.131 331.652 135.145C331.405 135.176 331.179 135.229 330.975 135.303C330.773 135.376 330.611 135.483 330.489 135.622C330.37 135.759 330.31 135.94 330.31 136.168C330.31 136.483 330.426 136.722 330.659 136.884C330.892 137.043 331.189 137.122 331.55 137.122ZM336.2 140.455V131.455H337.445V132.516H337.551C337.625 132.379 337.732 132.222 337.871 132.043C338.01 131.864 338.203 131.707 338.45 131.574C338.697 131.438 339.024 131.369 339.43 131.369C339.959 131.369 340.43 131.503 340.845 131.77C341.26 132.037 341.585 132.422 341.821 132.925C342.06 133.428 342.179 134.033 342.179 134.74C342.179 135.447 342.061 136.054 341.825 136.56C341.589 137.062 341.266 137.45 340.854 137.723C340.442 137.993 339.972 138.128 339.443 138.128C339.045 138.128 338.72 138.061 338.467 137.928C338.217 137.794 338.021 137.638 337.879 137.459C337.737 137.28 337.628 137.121 337.551 136.982H337.474V140.455H336.2ZM337.449 134.727C337.449 135.187 337.516 135.591 337.649 135.938C337.783 136.284 337.976 136.555 338.229 136.751C338.482 136.945 338.791 137.041 339.158 137.041C339.538 137.041 339.857 136.94 340.112 136.739C340.368 136.534 340.561 136.257 340.692 135.908C340.825 135.558 340.892 135.165 340.892 134.727C340.892 134.295 340.827 133.908 340.696 133.564C340.568 133.22 340.375 132.949 340.116 132.75C339.861 132.551 339.541 132.452 339.158 132.452C338.788 132.452 338.476 132.547 338.22 132.737C337.967 132.928 337.776 133.193 337.645 133.534C337.514 133.875 337.449 134.273 337.449 134.727Z" fill="black"/>
<path d="M305.351 80.2727H306.663V86.4602C306.663 87.0199 306.553 87.4986 306.331 87.8963C306.112 88.294 305.804 88.598 305.406 88.8082C305.009 89.0156 304.543 89.1193 304.009 89.1193C303.517 89.1193 303.075 89.0298 302.683 88.8509C302.294 88.6719 301.986 88.4119 301.759 88.071C301.534 87.7273 301.422 87.3097 301.422 86.8182H302.73C302.73 87.0597 302.786 87.2685 302.896 87.4446C303.01 87.6207 303.165 87.7585 303.361 87.858C303.56 87.9545 303.787 88.0028 304.043 88.0028C304.321 88.0028 304.557 87.9446 304.75 87.8281C304.946 87.7088 305.095 87.5341 305.197 87.304C305.3 87.0739 305.351 86.7926 305.351 86.4602V80.2727ZM310.382 89.1449C309.968 89.1449 309.593 89.0682 309.257 88.9148C308.922 88.7585 308.657 88.5327 308.461 88.2372C308.267 87.9418 308.171 87.5795 308.171 87.1506C308.171 86.7812 308.242 86.4773 308.384 86.2386C308.526 86 308.718 85.8111 308.959 85.6719C309.201 85.5327 309.471 85.4276 309.769 85.3565C310.067 85.2855 310.371 85.2315 310.681 85.1946C311.073 85.1491 311.391 85.1122 311.635 85.0838C311.88 85.0526 312.057 85.0028 312.168 84.9347C312.279 84.8665 312.334 84.7557 312.334 84.6023V84.5724C312.334 84.2003 312.229 83.9119 312.019 83.7074C311.811 83.5028 311.502 83.4006 311.09 83.4006C310.661 83.4006 310.323 83.4957 310.076 83.6861C309.831 83.8736 309.662 84.0824 309.569 84.3125L308.371 84.0398C308.513 83.642 308.721 83.321 308.993 83.0767C309.269 82.8295 309.586 82.6506 309.944 82.5398C310.301 82.4261 310.678 82.3693 311.073 82.3693C311.334 82.3693 311.611 82.4006 311.904 82.4631C312.199 82.5227 312.475 82.6335 312.73 82.7955C312.989 82.9574 313.201 83.1889 313.365 83.4901C313.53 83.7884 313.613 84.1761 313.613 84.6534V89H312.368V88.1051H312.317C312.235 88.2699 312.111 88.4318 311.946 88.5909C311.782 88.75 311.57 88.8821 311.311 88.9872C311.053 89.0923 310.743 89.1449 310.382 89.1449ZM310.659 88.1222C311.012 88.1222 311.313 88.0526 311.563 87.9134C311.816 87.7741 312.007 87.5923 312.138 87.3679C312.272 87.1406 312.338 86.8977 312.338 86.6392V85.7955C312.293 85.8409 312.205 85.8835 312.074 85.9233C311.946 85.9602 311.8 85.9929 311.635 86.0213C311.471 86.0469 311.31 86.071 311.154 86.0938C310.998 86.1136 310.867 86.1307 310.762 86.1449C310.515 86.1761 310.289 86.2287 310.084 86.3026C309.882 86.3764 309.721 86.483 309.598 86.6222C309.479 86.7585 309.419 86.9403 309.419 87.1676C309.419 87.483 309.536 87.7216 309.769 87.8835C310.002 88.0426 310.299 88.1222 310.659 88.1222ZM320.675 82.4545L318.301 89H316.938L314.56 82.4545H315.928L317.585 87.4915H317.653L319.307 82.4545H320.675ZM323.589 89.1449C323.175 89.1449 322.8 89.0682 322.464 88.9148C322.129 88.7585 321.864 88.5327 321.668 88.2372C321.474 87.9418 321.378 87.5795 321.378 87.1506C321.378 86.7812 321.449 86.4773 321.591 86.2386C321.733 86 321.925 85.8111 322.166 85.6719C322.408 85.5327 322.678 85.4276 322.976 85.3565C323.274 85.2855 323.578 85.2315 323.888 85.1946C324.28 85.1491 324.598 85.1122 324.842 85.0838C325.087 85.0526 325.264 85.0028 325.375 84.9347C325.486 84.8665 325.541 84.7557 325.541 84.6023V84.5724C325.541 84.2003 325.436 83.9119 325.226 83.7074C325.018 83.5028 324.709 83.4006 324.297 83.4006C323.868 83.4006 323.53 83.4957 323.283 83.6861C323.038 83.8736 322.869 84.0824 322.776 84.3125L321.578 84.0398C321.72 83.642 321.928 83.321 322.2 83.0767C322.476 82.8295 322.793 82.6506 323.151 82.5398C323.509 82.4261 323.885 82.3693 324.28 82.3693C324.541 82.3693 324.818 82.4006 325.111 82.4631C325.406 82.5227 325.682 82.6335 325.938 82.7955C326.196 82.9574 326.408 83.1889 326.572 83.4901C326.737 83.7884 326.82 84.1761 326.82 84.6534V89H325.575V88.1051H325.524C325.442 88.2699 325.318 88.4318 325.153 88.5909C324.989 88.75 324.777 88.8821 324.518 88.9872C324.26 89.0923 323.95 89.1449 323.589 89.1449ZM323.866 88.1222C324.219 88.1222 324.52 88.0526 324.77 87.9134C325.023 87.7741 325.214 87.5923 325.345 87.3679C325.479 87.1406 325.545 86.8977 325.545 86.6392V85.7955C325.5 85.8409 325.412 85.8835 325.281 85.9233C325.153 85.9602 325.007 85.9929 324.842 86.0213C324.678 86.0469 324.517 86.071 324.361 86.0938C324.205 86.1136 324.074 86.1307 323.969 86.1449C323.722 86.1761 323.496 86.2287 323.291 86.3026C323.089 86.3764 322.928 86.483 322.805 86.6222C322.686 86.7585 322.626 86.9403 322.626 87.1676C322.626 87.483 322.743 87.7216 322.976 87.8835C323.209 88.0426 323.506 88.1222 323.866 88.1222Z" fill="black"/>
</g>
<defs>
<clipPath id="clip0_0_1">
<rect width="354" height="276" fill="white"/>
</clipPath>
</defs>
</svg>
