<svg width="53" height="53" viewBox="0 0 53 53" fill="none" xmlns="http://www.w3.org/2000/svg">
<circle cx="26.5" cy="26.5" r="26.5" fill="#F3F1F9"/>
<path d="M24.88 31.68C24.7867 31.7867 24.6533 31.84 24.48 31.84C23.8533 31.84 22.8533 31.2667 21.48 30.12C20.12 28.96 18.9133 27.8067 17.86 26.66C17.9267 27.02 18.0533 27.6267 18.24 28.48C18.32 28.8133 18.3867 29.1333 18.44 29.44C18.5067 29.7467 18.54 29.9867 18.54 30.16C18.54 30.5467 18.4 30.78 18.12 30.86C18.0533 31.0333 17.8733 30.6 17.58 29.56C17.3 28.52 17.0333 27.32 16.78 25.96C16.54 24.5867 16.42 23.44 16.42 22.52C16.42 22.0533 16.46 21.6733 16.54 21.38C16.7133 21.2467 16.86 21.18 16.98 21.18C17.22 21.18 17.3867 21.3867 17.48 21.8C17.5733 22.2 17.66 22.8333 17.74 23.7L17.78 24.16C18.3 24.1333 19.0067 24.02 19.9 23.82C20.8067 23.62 21.6133 23.3467 22.32 23C23.04 22.64 23.4 22.2133 23.4 21.72C23.4 21.4533 23.2067 21.16 22.82 20.84C22.4467 20.5067 21.8667 20.2267 21.08 20C20.3067 19.7733 19.3533 19.66 18.22 19.66H17.58C16.82 19.66 16.2267 19.7867 15.8 20.04C15.3733 20.28 15.16 20.8 15.16 21.6C14.96 21.6 14.78 21.4733 14.62 21.22C14.46 20.9667 14.38 20.7333 14.38 20.52C14.38 19.6933 14.7733 19.1533 15.56 18.9C16.36 18.6467 17.5067 18.52 19 18.52C19.7867 18.52 20.6067 18.6467 21.46 18.9C22.3133 19.1533 23.0333 19.5533 23.62 20.1C24.2067 20.6333 24.5 21.3 24.5 22.1C24.5 22.6467 24.2533 23.1 23.76 23.46C23.28 23.82 22.7133 24.1 22.06 24.3C21.4067 24.5 20.6067 24.7067 19.66 24.92C18.8733 25.0933 18.36 25.22 18.12 25.3C19.1467 26.6867 20.1333 27.7667 21.08 28.54C22.04 29.3133 23.04 30.0133 24.08 30.64C24.44 30.8533 24.6933 31.0133 24.84 31.12C24.9867 31.2267 25.06 31.3267 25.06 31.42C25.06 31.5133 25 31.6 24.88 31.68ZM37.9547 19.5C37.9547 19.4333 38.0347 19.3733 38.1947 19.32C38.3547 19.2533 38.508 19.22 38.6547 19.22C38.7614 19.22 38.8414 19.2467 38.8947 19.3C38.948 19.34 38.948 19.4067 38.8947 19.5C38.788 19.7133 38.548 20.1667 38.1747 20.86C37.6147 21.9 37.168 22.8067 36.8347 23.58C36.5014 24.3533 36.2147 25.2933 35.9747 26.4C35.7347 27.5067 35.6147 28.7733 35.6147 30.2L35.6347 31.34C35.6347 31.4733 35.5747 31.5733 35.4547 31.64C35.348 31.7067 35.208 31.74 35.0347 31.74C34.9014 31.74 34.8147 31.72 34.7747 31.68C34.748 31.64 34.7347 31.58 34.7347 31.5C34.7347 31.42 34.7347 31.36 34.7347 31.32C34.6947 30.8 34.6747 30.3067 34.6747 29.84C34.6747 28.7867 34.768 27.78 34.9547 26.82C34.1547 25.8333 33.5014 24.9933 32.9947 24.3C32.5014 23.5933 32.0347 22.8133 31.5947 21.96C31.1547 21.1067 30.7414 20.12 30.3547 19C30.3814 19.0133 30.5147 19.0067 30.7547 18.98C30.9947 18.9533 31.128 18.94 31.1547 18.94L31.7947 20.16C32.5547 21.6 33.1614 22.7 33.6147 23.46C34.068 24.2067 34.6014 24.9333 35.2147 25.64C35.4947 24.5733 35.8347 23.6133 36.2347 22.76C36.648 21.8933 37.1347 20.96 37.6947 19.96L37.9547 19.5Z" fill="black"/>
</svg>
